<svg xmlns="http://www.w3.org/2000/svg" viewBox="0 0 40 40" fill="none">
  <path fill="#6983B5" d="M0 29.437l3-14.112h6.94c3 .173 4.5 1.567 4.5 4.007 0 4.181-3.563 6.62-6.75 6.445H4.312l-.75 3.66H0zm5.063-6.272h2.25c1.689-.175 3.189-.697 3.377-3.658 0-1.047-.938-1.569-2.25-1.569H6l-.938 5.227h.001zm8.68 2.612l3-14.11h3.564l-.75 3.658h3.375c3 .173 4.126 1.567 3.75 3.31l-1.312 7.142h-3.75l1.312-6.445c.188-.872.188-1.394-1.125-1.394h-2.814l-1.686 7.839h-3.564zm11.387 3.66l3-14.112h6.94c3 .173 4.5 1.567 4.5 4.007 0 4.181-3.563 6.62-6.75 6.445h-3.377l-.75 3.66H25.13zm5.063-6.272h2.25c1.689-.175 3.189-.697 3.377-3.658 0-1.047-.938-1.569-2.25-1.569h-2.438l-.939 5.227z"/>
</svg>
